<svg width="1440" height="512" viewBox="0 0 1440 512" fill="none" xmlns="http://www.w3.org/2000/svg">
<rect width="1440" height="512" fill="#2F3336"/>
<path d="M504.773 301.397C504.773 301.397 510.773 313.919 510.344 322.391C509.744 334.223 497.459 337.381 496.045 349.144C493.9 366.979 508.672 385 508.672 385" stroke="white" stroke-width="8"/>
<path d="M566.61 188.812C560.592 124.531 504.587 126.017 504.587 126.017C504.587 126.017 448.32 123.23 442.378 188.998C436.435 254.765 502.544 289.507 504.772 289.507C507.001 289.507 572.628 253.093 566.61 188.812Z" stroke="white" stroke-width="8"/>
<path d="M501.987 289.879C498.149 295.081 495.116 303.812 495.859 304.556C496.23 304.927 500.327 303.421 505.701 303.627C514.8 303.627 516.472 305.335 516.472 304.184C516.472 301.955 508.115 290.993 507.929 289.879H501.987Z" fill="white"/>
<path d="M457.396 214.764C457.392 217.064 454.737 217.59 454.267 215.339C452.49 206.833 451.267 194.619 453.705 180.266C455.551 169.4 462.739 158.275 465.053 154.909C465.49 154.274 466.258 153.977 467.014 154.122L475.766 155.801C477.313 156.098 477.968 158.023 476.983 159.252C473.316 163.829 466.168 173.811 461.505 187.14C458.238 196.479 457.41 206.804 457.396 214.764Z" fill="white"/>
<path d="M656 270.408C654.912 270.856 653.6 271.368 652.064 271.944C650.528 272.52 648.864 272.968 647.072 273.288C645.344 273.672 643.584 273.864 641.792 273.864C639.424 273.864 637.248 273.448 635.264 272.616C633.28 271.784 631.68 270.472 630.464 268.68C629.312 266.824 628.736 264.424 628.736 261.48V232.584H622.112V222.696H628.736V206.376H641.6V222.696H652.16V232.584H641.6V257.16C641.664 258.888 642.144 260.136 643.04 260.904C643.936 261.672 645.056 262.056 646.4 262.056C647.744 262.056 649.056 261.832 650.336 261.384C651.616 260.936 652.64 260.552 653.408 260.232L656 270.408ZM662.7 273V222.696H675.564V273H662.7ZM662.7 215.688V202.92H675.564V215.688H662.7ZM683.713 258.12C683.713 254.856 684.609 252.008 686.401 249.576C688.257 247.08 690.817 245.16 694.081 243.816C697.345 242.472 701.089 241.8 705.312 241.8C707.425 241.8 709.569 241.96 711.745 242.28C713.921 242.6 715.809 243.112 717.409 243.816V241.128C717.409 237.928 716.449 235.464 714.529 233.736C712.673 232.008 709.889 231.144 706.177 231.144C703.425 231.144 700.801 231.624 698.305 232.584C695.809 233.544 693.185 234.952 690.433 236.808L686.305 228.36C689.633 226.184 693.025 224.552 696.481 223.464C700.001 222.376 703.681 221.832 707.521 221.832C714.689 221.832 720.257 223.624 724.225 227.208C728.257 230.792 730.273 235.912 730.273 242.568V258.6C730.273 259.944 730.497 260.904 730.945 261.48C731.457 262.056 732.257 262.408 733.345 262.536V273C732.193 273.192 731.137 273.352 730.177 273.48C729.281 273.608 728.513 273.672 727.873 273.672C725.313 273.672 723.361 273.096 722.017 271.944C720.737 270.792 719.937 269.384 719.617 267.72L719.329 265.128C717.153 267.944 714.433 270.12 711.169 271.656C707.905 273.192 704.577 273.96 701.185 273.96C697.857 273.96 694.849 273.288 692.161 271.944C689.537 270.536 687.457 268.648 685.921 266.28C684.449 263.848 683.713 261.128 683.713 258.12ZM715.009 260.712C715.713 259.944 716.289 259.176 716.737 258.408C717.185 257.64 717.409 256.936 717.409 256.296V251.208C715.873 250.568 714.209 250.088 712.417 249.768C710.625 249.384 708.929 249.192 707.329 249.192C704.001 249.192 701.249 249.928 699.073 251.4C696.961 252.808 695.905 254.696 695.905 257.064C695.905 258.344 696.257 259.56 696.961 260.712C697.665 261.864 698.689 262.792 700.033 263.496C701.377 264.2 702.977 264.552 704.833 264.552C706.753 264.552 708.641 264.2 710.497 263.496C712.353 262.728 713.857 261.8 715.009 260.712ZM761.974 273.288C758.646 273.288 755.574 272.648 752.758 271.368C750.006 270.024 747.606 268.168 745.558 265.8C743.574 263.432 742.038 260.712 740.95 257.64C739.862 254.568 739.318 251.304 739.318 247.848C739.318 244.2 739.894 240.808 741.046 237.672C742.197 234.536 743.798 231.784 745.846 229.416C747.958 226.984 750.422 225.128 753.238 223.848C756.118 222.504 759.286 221.832 762.742 221.832C766.646 221.832 770.07 222.728 773.014 224.52C775.958 226.248 778.39 228.584 780.31 231.528V222.696H791.542V270.6C791.542 275.592 790.326 279.848 787.894 283.368C785.526 286.952 782.23 289.672 778.006 291.528C773.782 293.448 768.982 294.408 763.606 294.408C758.166 294.408 753.558 293.48 749.782 291.624C746.006 289.832 742.774 287.272 740.086 283.944L747.094 277.128C749.014 279.496 751.414 281.352 754.294 282.696C757.238 284.04 760.342 284.712 763.606 284.712C766.358 284.712 768.854 284.2 771.094 283.176C773.398 282.216 775.222 280.68 776.566 278.568C777.974 276.52 778.678 273.864 778.678 270.6V264.264C777.014 267.144 774.646 269.384 771.574 270.984C768.566 272.52 765.366 273.288 761.974 273.288ZM766.294 263.016C767.702 263.016 769.046 262.792 770.326 262.344C771.606 261.896 772.79 261.288 773.878 260.52C774.966 259.752 775.926 258.856 776.758 257.832C777.59 256.744 778.23 255.656 778.678 254.568V242.568C777.91 240.584 776.822 238.856 775.414 237.384C774.07 235.912 772.534 234.792 770.806 234.024C769.142 233.192 767.382 232.776 765.526 232.776C763.542 232.776 761.75 233.192 760.15 234.024C758.55 234.856 757.174 236.04 756.022 237.576C754.87 239.048 753.974 240.712 753.334 242.568C752.758 244.36 752.47 246.248 752.47 248.232C752.47 250.28 752.822 252.2 753.526 253.992C754.23 255.784 755.19 257.352 756.406 258.696C757.686 260.04 759.158 261.096 760.822 261.864C762.55 262.632 764.374 263.016 766.294 263.016ZM826.369 273.96C822.273 273.96 818.593 273.288 815.329 271.944C812.065 270.536 809.281 268.616 806.977 266.184C804.737 263.752 803.009 260.968 801.793 257.832C800.577 254.696 799.969 251.4 799.969 247.944C799.969 244.424 800.577 241.096 801.793 237.96C803.009 234.824 804.737 232.04 806.977 229.608C809.281 227.176 812.065 225.288 815.329 223.944C818.593 222.536 822.273 221.832 826.369 221.832C830.465 221.832 834.113 222.536 837.313 223.944C840.577 225.288 843.361 227.176 845.665 229.608C847.969 232.04 849.697 234.824 850.849 237.96C852.065 241.096 852.673 244.424 852.673 247.944C852.673 251.4 852.065 254.696 850.849 257.832C849.697 260.968 847.969 263.752 845.665 266.184C843.425 268.616 840.673 270.536 837.409 271.944C834.145 273.288 830.465 273.96 826.369 273.96ZM813.217 247.944C813.217 250.888 813.793 253.512 814.945 255.816C816.097 258.056 817.665 259.816 819.649 261.096C821.633 262.376 823.873 263.016 826.369 263.016C828.801 263.016 831.009 262.376 832.993 261.096C834.977 259.752 836.545 257.96 837.697 255.72C838.913 253.416 839.521 250.792 839.521 247.848C839.521 244.968 838.913 242.376 837.697 240.072C836.545 237.768 834.977 235.976 832.993 234.696C831.009 233.416 828.801 232.776 826.369 232.776C823.873 232.776 821.633 233.448 819.649 234.792C817.665 236.072 816.097 237.864 814.945 240.168C813.793 242.408 813.217 245 813.217 247.944ZM889.964 273.96C886.124 273.96 882.7 273.096 879.692 271.368C876.684 269.64 874.316 267.272 872.588 264.264V273H861.356V202.92H874.22V231.528C876.012 228.52 878.348 226.152 881.228 224.424C884.172 222.696 887.596 221.832 891.5 221.832C894.764 221.832 897.74 222.536 900.428 223.944C903.116 225.288 905.42 227.176 907.34 229.608C909.324 232.04 910.828 234.824 911.852 237.96C912.94 241.096 913.484 244.456 913.484 248.04C913.484 251.624 912.876 254.984 911.66 258.12C910.508 261.256 908.876 264.04 906.764 266.472C904.652 268.84 902.156 270.696 899.276 272.04C896.46 273.32 893.356 273.96 889.964 273.96ZM886.412 263.016C888.46 263.016 890.316 262.632 891.98 261.864C893.708 261.032 895.18 259.944 896.396 258.6C897.676 257.256 898.636 255.688 899.276 253.896C899.98 252.04 900.332 250.12 900.332 248.136C900.332 245.384 899.756 242.856 898.604 240.552C897.516 238.184 895.98 236.296 893.996 234.888C892.076 233.48 889.804 232.776 887.18 232.776C885.324 232.776 883.532 233.224 881.804 234.12C880.14 234.952 878.636 236.104 877.292 237.576C876.012 239.048 874.988 240.712 874.22 242.568V254.568C874.604 255.848 875.212 257 876.044 258.024C876.94 259.048 877.964 259.944 879.116 260.712C880.268 261.416 881.452 261.992 882.668 262.44C883.948 262.824 885.196 263.016 886.412 263.016ZM924.803 273V235.176H918.179V225.384H924.803V222.312C924.803 218.152 925.475 214.568 926.819 211.56C928.227 208.488 930.179 206.12 932.675 204.456C935.235 202.792 938.211 201.96 941.603 201.96C943.651 201.96 945.699 202.216 947.747 202.728C949.859 203.24 951.939 203.976 953.987 204.936L951.395 214.632C950.435 214.12 949.315 213.704 948.035 213.384C946.755 213 945.539 212.808 944.387 212.808C942.211 212.808 940.547 213.576 939.395 215.112C938.243 216.648 937.667 218.888 937.667 221.832V225.384H949.955V235.176H937.667V273H924.803ZM975.79 273.96C971.502 273.96 967.406 273.256 963.502 271.848C959.598 270.44 956.238 268.36 953.422 265.608L958.03 257.256C961.038 259.688 963.982 261.48 966.862 262.632C969.806 263.784 972.622 264.36 975.31 264.36C977.806 264.36 979.79 263.912 981.262 263.016C982.798 262.12 983.566 260.776 983.566 258.984C983.566 257.768 983.15 256.84 982.318 256.2C981.486 255.496 980.27 254.888 978.67 254.376C977.134 253.864 975.246 253.288 973.006 252.648C969.294 251.432 966.19 250.248 963.694 249.096C961.198 247.944 959.31 246.504 958.03 244.776C956.814 242.984 956.206 240.712 956.206 237.96C956.206 234.632 957.038 231.784 958.702 229.416C960.43 226.984 962.798 225.096 965.806 223.752C968.878 222.408 972.462 221.736 976.558 221.736C980.142 221.736 983.534 222.312 986.734 223.464C989.934 224.552 992.846 226.344 995.47 228.84L990.286 237C987.726 235.016 985.294 233.576 982.99 232.68C980.686 231.72 978.35 231.24 975.982 231.24C974.638 231.24 973.358 231.4 972.142 231.72C970.99 232.04 970.03 232.584 969.262 233.352C968.558 234.056 968.206 235.08 968.206 236.424C968.206 237.64 968.526 238.6 969.166 239.304C969.87 239.944 970.894 240.52 972.238 241.032C973.646 241.544 975.342 242.12 977.326 242.76C981.358 243.912 984.75 245.096 987.502 246.312C990.318 247.528 992.43 249.032 993.838 250.824C995.246 252.552 995.95 254.952 995.95 258.024C995.95 263.016 994.126 266.92 990.478 269.736C986.83 272.552 981.934 273.96 975.79 273.96Z" fill="white"/>
<path d="M709.492 322V302.12H716.24C718.349 302.12 720.104 302.568 721.504 303.464C722.923 304.341 723.987 305.536 724.696 307.048C725.405 308.541 725.76 310.203 725.76 312.032C725.76 314.048 725.368 315.803 724.584 317.296C723.819 318.789 722.717 319.947 721.28 320.768C719.861 321.589 718.181 322 716.24 322H709.492ZM723.8 312.032C723.8 310.445 723.501 309.036 722.904 307.804C722.325 306.572 721.476 305.611 720.356 304.92C719.236 304.211 717.864 303.856 716.24 303.856H711.452V320.264H716.24C717.883 320.264 719.264 319.9 720.384 319.172C721.504 318.444 722.353 317.464 722.932 316.232C723.511 314.981 723.8 313.581 723.8 312.032ZM729.116 322V307.412H731.02V322H729.116ZM729.116 304.36V301.56H731.02V304.36H729.116ZM740.001 322.28C738.807 322.28 737.696 322.084 736.669 321.692C735.643 321.3 734.756 320.703 734.009 319.9L734.793 318.556C735.615 319.321 736.436 319.881 737.257 320.236C738.097 320.572 738.984 320.74 739.917 320.74C741.056 320.74 741.98 320.516 742.689 320.068C743.399 319.601 743.753 318.939 743.753 318.08C743.753 317.501 743.576 317.063 743.221 316.764C742.885 316.447 742.391 316.195 741.737 316.008C741.103 315.803 740.337 315.588 739.441 315.364C738.433 315.084 737.584 314.795 736.893 314.496C736.221 314.179 735.708 313.787 735.353 313.32C735.017 312.835 734.849 312.209 734.849 311.444C734.849 310.492 735.083 309.708 735.549 309.092C736.035 308.457 736.688 307.981 737.509 307.664C738.349 307.328 739.283 307.16 740.309 307.16C741.429 307.16 742.419 307.337 743.277 307.692C744.136 308.047 744.836 308.541 745.377 309.176L744.453 310.464C743.931 309.867 743.305 309.428 742.577 309.148C741.868 308.849 741.075 308.7 740.197 308.7C739.6 308.7 739.031 308.784 738.489 308.952C737.948 309.101 737.5 309.363 737.145 309.736C736.809 310.091 736.641 310.585 736.641 311.22C736.641 311.743 736.772 312.153 737.033 312.452C737.295 312.732 737.687 312.975 738.209 313.18C738.732 313.367 739.376 313.572 740.141 313.796C741.243 314.095 742.204 314.403 743.025 314.72C743.847 315.019 744.481 315.411 744.929 315.896C745.377 316.381 745.601 317.063 745.601 317.94C745.601 319.303 745.088 320.367 744.061 321.132C743.035 321.897 741.681 322.28 740.001 322.28ZM755.076 322.28C754.012 322.28 753.032 322.084 752.136 321.692C751.259 321.281 750.484 320.721 749.812 320.012C749.159 319.303 748.646 318.491 748.272 317.576C747.918 316.661 747.74 315.691 747.74 314.664C747.74 313.283 748.048 312.023 748.664 310.884C749.28 309.745 750.139 308.84 751.24 308.168C752.342 307.496 753.611 307.16 755.048 307.16C756.411 307.16 757.615 307.477 758.66 308.112C759.706 308.728 760.48 309.568 760.984 310.632L759.136 311.22C758.726 310.473 758.147 309.895 757.4 309.484C756.672 309.055 755.86 308.84 754.964 308.84C753.994 308.84 753.107 309.092 752.304 309.596C751.502 310.1 750.858 310.791 750.372 311.668C749.906 312.545 749.672 313.544 749.672 314.664C749.672 315.765 749.915 316.764 750.4 317.66C750.886 318.556 751.53 319.275 752.332 319.816C753.135 320.339 754.022 320.6 754.992 320.6C755.627 320.6 756.234 320.488 756.812 320.264C757.41 320.04 757.923 319.741 758.352 319.368C758.8 318.976 759.099 318.556 759.248 318.108L761.124 318.668C760.863 319.359 760.424 319.984 759.808 320.544C759.211 321.085 758.502 321.515 757.68 321.832C756.878 322.131 756.01 322.28 755.076 322.28ZM770.195 322.28C769.15 322.28 768.179 322.084 767.283 321.692C766.406 321.281 765.64 320.731 764.987 320.04C764.352 319.331 763.858 318.528 763.503 317.632C763.148 316.717 762.971 315.756 762.971 314.748C762.971 313.703 763.148 312.732 763.503 311.836C763.858 310.921 764.362 310.119 765.015 309.428C765.668 308.719 766.434 308.168 767.311 307.776C768.207 307.365 769.178 307.16 770.223 307.16C771.268 307.16 772.23 307.365 773.107 307.776C773.984 308.168 774.75 308.719 775.403 309.428C776.056 310.119 776.56 310.921 776.915 311.836C777.27 312.732 777.447 313.703 777.447 314.748C777.447 315.756 777.27 316.717 776.915 317.632C776.56 318.528 776.056 319.331 775.403 320.04C774.768 320.731 774.003 321.281 773.107 321.692C772.23 322.084 771.259 322.28 770.195 322.28ZM764.903 314.776C764.903 315.859 765.136 316.848 765.603 317.744C766.088 318.621 766.732 319.321 767.535 319.844C768.338 320.348 769.224 320.6 770.195 320.6C771.166 320.6 772.052 320.339 772.855 319.816C773.658 319.293 774.302 318.584 774.787 317.688C775.272 316.773 775.515 315.784 775.515 314.72C775.515 313.637 775.272 312.648 774.787 311.752C774.302 310.856 773.658 310.147 772.855 309.624C772.052 309.101 771.166 308.84 770.195 308.84C769.224 308.84 768.338 309.111 767.535 309.652C766.751 310.193 766.116 310.912 765.631 311.808C765.146 312.685 764.903 313.675 764.903 314.776ZM787.911 309.092C786.642 309.129 785.522 309.484 784.551 310.156C783.599 310.828 782.927 311.752 782.535 312.928V322H780.631V307.412H782.423V310.912C782.927 309.885 783.59 309.055 784.411 308.42C785.251 307.785 786.138 307.431 787.071 307.356C787.258 307.337 787.417 307.328 787.547 307.328C787.697 307.328 787.818 307.337 787.911 307.356V309.092ZM789.058 314.748C789.058 313.367 789.338 312.107 789.898 310.968C790.476 309.811 791.27 308.887 792.278 308.196C793.286 307.505 794.434 307.16 795.722 307.16C796.935 307.16 798.018 307.487 798.97 308.14C799.94 308.775 800.696 309.549 801.238 310.464V301.56H803.142V319.704C803.142 319.965 803.198 320.161 803.31 320.292C803.422 320.404 803.59 320.469 803.814 320.488V322C803.44 322.056 803.151 322.075 802.946 322.056C802.554 322.037 802.208 321.879 801.91 321.58C801.611 321.281 801.462 320.955 801.462 320.6V319.172C800.883 320.124 800.099 320.88 799.11 321.44C798.12 322 797.094 322.28 796.03 322.28C795.022 322.28 794.088 322.075 793.23 321.664C792.39 321.253 791.652 320.693 791.018 319.984C790.402 319.275 789.916 318.472 789.562 317.576C789.226 316.661 789.058 315.719 789.058 314.748ZM801.238 316.988V312.48C800.995 311.808 800.603 311.201 800.062 310.66C799.52 310.1 798.904 309.661 798.214 309.344C797.542 309.008 796.87 308.84 796.198 308.84C795.414 308.84 794.704 309.008 794.07 309.344C793.435 309.661 792.884 310.1 792.418 310.66C791.97 311.22 791.624 311.855 791.382 312.564C791.139 313.273 791.018 314.001 791.018 314.748C791.018 315.532 791.148 316.279 791.41 316.988C791.69 317.697 792.082 318.332 792.586 318.892C793.09 319.433 793.668 319.853 794.322 320.152C794.975 320.451 795.684 320.6 796.45 320.6C796.935 320.6 797.439 320.507 797.962 320.32C798.484 320.133 798.979 319.881 799.446 319.564C799.931 319.228 800.332 318.836 800.65 318.388C800.967 317.94 801.163 317.473 801.238 316.988ZM828.276 303.856H821.192V322H819.232V303.856H812.148V302.12H828.276V303.856ZM831.254 322V302.12H833.214V320.264H844.694V322H831.254ZM860.934 320.264V322H847.578V302.12H860.682V303.856H849.538V311.024H859.254V312.676H849.538V320.264H860.934ZM878.525 322.28C877.386 322.28 876.332 321.991 875.361 321.412C874.39 320.815 873.634 320.068 873.093 319.172V322H871.385V301.56H873.289V310.464C873.942 309.475 874.726 308.681 875.641 308.084C876.556 307.468 877.62 307.16 878.833 307.16C879.86 307.16 880.774 307.375 881.577 307.804C882.398 308.233 883.098 308.812 883.677 309.54C884.256 310.249 884.694 311.061 884.993 311.976C885.292 312.872 885.441 313.796 885.441 314.748C885.441 315.775 885.264 316.736 884.909 317.632C884.573 318.528 884.088 319.331 883.453 320.04C882.818 320.731 882.081 321.281 881.241 321.692C880.42 322.084 879.514 322.28 878.525 322.28ZM878.077 320.6C878.861 320.6 879.589 320.441 880.261 320.124C880.933 319.807 881.512 319.368 881.997 318.808C882.482 318.248 882.856 317.623 883.117 316.932C883.378 316.223 883.509 315.495 883.509 314.748C883.509 313.721 883.285 312.76 882.837 311.864C882.408 310.949 881.801 310.221 881.017 309.68C880.252 309.12 879.346 308.84 878.301 308.84C877.554 308.84 876.854 309.008 876.201 309.344C875.566 309.68 874.997 310.128 874.493 310.688C874.008 311.229 873.606 311.827 873.289 312.48V317.016C873.364 317.52 873.56 317.996 873.877 318.444C874.194 318.873 874.586 319.247 875.053 319.564C875.538 319.881 876.042 320.133 876.565 320.32C877.088 320.507 877.592 320.6 878.077 320.6ZM894.882 322.28C893.837 322.28 892.866 322.084 891.97 321.692C891.093 321.281 890.328 320.731 889.674 320.04C889.04 319.331 888.545 318.528 888.19 317.632C887.836 316.717 887.658 315.756 887.658 314.748C887.658 313.703 887.836 312.732 888.19 311.836C888.545 310.921 889.049 310.119 889.702 309.428C890.356 308.719 891.121 308.168 891.998 307.776C892.894 307.365 893.865 307.16 894.91 307.16C895.956 307.16 896.917 307.365 897.794 307.776C898.672 308.168 899.437 308.719 900.09 309.428C900.744 310.119 901.248 310.921 901.602 311.836C901.957 312.732 902.134 313.703 902.134 314.748C902.134 315.756 901.957 316.717 901.602 317.632C901.248 318.528 900.744 319.331 900.09 320.04C899.456 320.731 898.69 321.281 897.794 321.692C896.917 322.084 895.946 322.28 894.882 322.28ZM889.59 314.776C889.59 315.859 889.824 316.848 890.29 317.744C890.776 318.621 891.42 319.321 892.222 319.844C893.025 320.348 893.912 320.6 894.882 320.6C895.853 320.6 896.74 320.339 897.542 319.816C898.345 319.293 898.989 318.584 899.474 317.688C899.96 316.773 900.202 315.784 900.202 314.72C900.202 313.637 899.96 312.648 899.474 311.752C898.989 310.856 898.345 310.147 897.542 309.624C896.74 309.101 895.853 308.84 894.882 308.84C893.912 308.84 893.025 309.111 892.222 309.652C891.438 310.193 890.804 310.912 890.318 311.808C889.833 312.685 889.59 313.675 889.59 314.776ZM912.1 321.3C911.951 321.356 911.717 321.459 911.4 321.608C911.083 321.757 910.7 321.888 910.252 322C909.804 322.112 909.319 322.168 908.796 322.168C908.255 322.168 907.741 322.065 907.256 321.86C906.789 321.655 906.416 321.347 906.136 320.936C905.856 320.507 905.716 319.984 905.716 319.368V308.924H903.7V307.412H905.716V302.484H907.62V307.412H910.98V308.924H907.62V318.836C907.657 319.359 907.844 319.751 908.18 320.012C908.535 320.273 908.936 320.404 909.384 320.404C909.907 320.404 910.383 320.32 910.812 320.152C911.241 319.965 911.503 319.835 911.596 319.76L912.1 321.3Z" fill="white"/>
</svg>
